<svg width="64" height="64" viewBox="0 0 64 64" fill="none" xmlns="http://www.w3.org/2000/svg">
<g clip-path="url(#clip0_396_6211)">
<path d="M17.5308 9.07695C18.8834 9.01905 20.2039 9.49934 21.2032 10.4127C22.2026 11.3261 22.7993 12.5982 22.863 13.9505C22.9145 15.0355 22.5906 16.1051 21.9458 16.9792C21.2313 18.0456 17.5308 22.9512 17.5308 22.9512C17.5308 22.9512 13.8303 18.0456 13.1051 16.9792C12.4673 16.1022 12.1475 15.0338 12.1987 13.9505C12.2623 12.5982 12.8591 11.3261 13.8584 10.4127C14.8577 9.49934 16.1782 9.01905 17.5308 9.07695V9.07695Z" stroke="#7E868C" stroke-width="2" stroke-miterlimit="10"/>
<path d="M21.7972 23.7085C23.7274 24.4763 24.9965 25.756 24.9965 27.2064C24.9965 29.5632 21.6585 31.4721 17.5314 31.4721C13.4044 31.4721 10.0664 29.5632 10.0664 27.2064C10.0664 25.756 11.3355 24.4763 13.2657 23.7085" stroke="#11181C" stroke-width="2" stroke-miterlimit="10"/>
<path d="M46.3244 40.0036C50.4472 40.0036 53.7894 38.0938 53.7894 35.7379C53.7894 33.382 50.4472 31.4722 46.3244 31.4722C42.2016 31.4722 38.8594 33.382 38.8594 35.7379C38.8594 38.0938 42.2016 40.0036 46.3244 40.0036Z" stroke="#11181C" stroke-width="2" stroke-miterlimit="10"/>
<path d="M21.797 54.9335C25.9198 54.9335 29.262 53.0237 29.262 50.6678C29.262 48.3119 25.9198 46.4021 21.797 46.4021C17.6742 46.4021 14.332 48.3119 14.332 50.6678C14.332 53.0237 17.6742 54.9335 21.797 54.9335Z" stroke="#11181C" stroke-width="2" stroke-miterlimit="10"/>
<path d="M23.9297 29.3394L39.9261 33.6051" stroke="#11181C" stroke-width="2" stroke-miterlimit="10"/>
<path d="M40.9925 38.937L27.1289 47.4684" stroke="#11181C" stroke-width="2" stroke-miterlimit="10"/>
</g>
<defs>
<clipPath id="clip0_396_6211">
<rect width="45.8565" height="48" fill="white" transform="translate(9 8)"/>
</clipPath>
</defs>
</svg>
