<svg width="64" height="64" viewBox="0 0 64 64" fill="none" xmlns="http://www.w3.org/2000/svg">
<path d="M10.607 29.0909C9.33742 29.0895 8.12025 28.5845 7.22251 27.6868C6.32478 26.789 5.8198 25.5719 5.81836 24.3023C5.81836 20.3398 9.77377 14.7397 9.94217 14.5033C10.0176 14.3973 10.1174 14.3109 10.233 14.2512C10.3487 14.1916 10.4769 14.1605 10.607 14.1605H10.6108C10.7416 14.1611 10.8703 14.1932 10.9861 14.2539C11.1019 14.3146 11.2014 14.4023 11.2763 14.5095C11.4445 14.7505 15.3957 20.4554 15.3957 24.3023C15.3943 25.5719 14.8893 26.789 13.9915 27.6868C13.0938 28.5845 11.8766 29.0895 10.607 29.0909ZM10.6017 16.4607C10.2447 17.023 9.78646 17.7813 9.33182 18.6356C8.10121 20.9478 7.45075 22.9073 7.45075 24.3023C7.45075 25.1394 7.78328 25.9422 8.3752 26.5341C8.96712 27.126 9.76994 27.4586 10.607 27.4586C11.4441 27.4586 12.247 27.126 12.8389 26.5341C13.4308 25.9422 13.7633 25.1394 13.7633 24.3023C13.7633 22.9487 13.1093 20.9971 11.8719 18.6583C11.4154 17.7956 10.9574 17.0288 10.6017 16.4607Z" fill="#7E868C"/>
<path d="M36.4554 42.5532C36.0383 42.5539 35.6251 42.4722 35.2396 42.3128C34.8542 42.1534 34.504 41.9194 34.2092 41.6242L28.8581 36.2731C28.2633 35.6769 27.9292 34.8691 27.9292 34.0269C27.9292 33.1847 28.2633 32.3769 28.8581 31.7807L29.8912 30.7476C30.4874 30.1527 31.2953 29.8186 32.1375 29.8186C32.9797 29.8186 33.7875 30.1527 34.3837 30.7476L39.7348 36.0986C40.3296 36.6949 40.6637 37.5027 40.6637 38.3449C40.6637 39.1871 40.3296 39.9949 39.7348 40.5911L38.7017 41.6242C38.4069 41.9194 38.0567 42.1534 37.6712 42.3128C37.2858 42.4722 36.8726 42.5539 36.4554 42.5532ZM32.1375 31.4503C31.9347 31.4499 31.7338 31.4896 31.5464 31.5671C31.359 31.6446 31.1888 31.7584 31.0455 31.9018L30.0124 32.9349C29.7232 33.2248 29.5608 33.6175 29.5608 34.0269C29.5608 34.4363 29.7232 34.8291 30.0124 35.1189L35.3635 40.47C35.6533 40.7591 36.046 40.9215 36.4554 40.9215C36.8649 40.9215 37.2576 40.7591 37.5474 40.47L38.5805 39.4369C38.8697 39.147 39.0321 38.7543 39.0321 38.3449C39.0321 37.9355 38.8697 37.5427 38.5805 37.2529L33.2295 31.9018C33.0861 31.7584 32.9159 31.6446 32.7285 31.5671C32.5411 31.4896 32.3403 31.4499 32.1375 31.4503Z" fill="#11181C"/>
<path d="M44.9889 48.7601C44.677 48.7607 44.3681 48.6996 44.0798 48.5804C43.7916 48.4613 43.5298 48.2863 43.3094 48.0657L40.7682 45.5245C40.763 45.5193 40.7579 45.5139 40.7528 45.5086L40.2592 44.9875L38.5035 46.7431C38.2722 46.9744 37.9975 47.158 37.6953 47.2832C37.393 47.4084 37.069 47.4729 36.7419 47.4729C36.4147 47.4729 36.0907 47.4084 35.7884 47.2832C35.4862 47.158 35.2115 46.9745 34.9802 46.7431L24.5301 36.2925C23.8361 35.5964 23.3372 34.7302 23.0835 33.7806C22.8299 32.831 22.8302 31.8313 23.0846 30.8819L24.0998 27.1155C24.1389 26.9697 24.139 26.8162 24.1 26.6703C24.0611 26.5245 23.9845 26.3915 23.8779 26.2846L22.8991 25.3057C22.4319 24.8385 22.1694 24.2048 22.1694 23.5441C22.1694 22.8833 22.4319 22.2497 22.8991 21.7825L24.4205 20.2611C24.5004 20.1812 24.5638 20.0863 24.607 19.9819C24.6501 19.8775 24.6723 19.7655 24.6721 19.6525C24.6719 19.5395 24.6495 19.4277 24.606 19.3233C24.5625 19.219 24.4989 19.1243 24.4187 19.0447L18.8532 13.5111L11.3787 12.2C10.9337 12.1226 10.5303 11.8905 10.2399 11.5446C9.94935 11.1987 9.79039 10.7613 9.79102 10.3096V8.70864C9.79101 8.4383 9.84812 8.17101 9.9586 7.92427C10.0691 7.67753 10.2304 7.45692 10.4321 7.27688C10.6338 7.09683 10.8712 6.96142 11.1288 6.87952C11.3865 6.79761 11.6585 6.77105 11.9271 6.80159L21.5965 7.90052C21.7449 7.91742 21.8859 7.97471 22.004 8.06616L29.2461 13.6739C29.2704 13.6927 29.2936 13.7128 29.3155 13.7342C29.4775 13.8904 29.6941 13.9771 29.9191 13.9758C30.1441 13.9746 30.3597 13.8855 30.52 13.7276C30.9804 13.2723 31.5994 13.0132 32.2468 13.0047C32.8943 12.9962 33.5199 13.2389 33.9922 13.6818L37.9043 17.2995C38.1562 17.533 38.3573 17.8159 38.4949 18.1306C38.6326 18.4453 38.7038 18.7851 38.7043 19.1286V23.5557C38.704 23.6685 38.726 23.7803 38.7692 23.8846C38.8124 23.9888 38.8759 24.0835 38.9559 24.1631L48.2585 33.4636C48.6993 33.9044 48.9589 34.4945 48.986 35.1173C49.013 35.7401 48.8057 36.3505 48.4048 36.8279C48.3872 36.9585 48.4102 37.2206 48.7411 37.5516L51.2823 40.0927C51.727 40.5385 51.9768 41.1425 51.9768 41.7722C51.9768 42.4019 51.727 43.0059 51.2823 43.4517L46.6683 48.0656C46.4479 48.2863 46.1861 48.4612 45.8979 48.5804C45.6097 48.6996 45.3007 48.7607 44.9889 48.7601ZM41.9303 44.378L44.4636 46.9114C44.6031 47.0504 44.792 47.1285 44.9889 47.1285C45.1858 47.1285 45.3747 47.0504 45.5141 46.9113L50.128 42.2974C50.2671 42.158 50.3452 41.9691 50.3452 41.7722C50.3452 41.5753 50.2671 41.3864 50.128 41.247L47.5869 38.7058C46.5491 37.6681 46.7001 36.5433 46.9529 36.0422C46.9919 35.9647 47.0431 35.894 47.1044 35.8327C47.1841 35.7529 47.2474 35.6582 47.2906 35.554C47.3337 35.4498 47.3559 35.3381 47.3559 35.2253C47.3559 35.1125 47.3337 35.0008 47.2905 34.8966C47.2474 34.7924 47.1841 34.6977 47.1043 34.618L37.8018 25.3175C37.5696 25.0867 37.3856 24.8121 37.2603 24.5097C37.135 24.2073 37.071 23.883 37.0719 23.5557V19.1286C37.0717 19.0101 37.0472 18.893 36.9997 18.7845C36.9523 18.676 36.8829 18.5785 36.7961 18.498L32.8839 14.8804C32.7191 14.7266 32.5019 14.6415 32.2764 14.6424C32.051 14.6433 31.8345 14.7301 31.6709 14.8852C31.2122 15.3371 30.597 15.5948 29.9532 15.6049C29.3094 15.6149 28.6865 15.3765 28.2139 14.9392L21.1852 9.49667L11.7427 8.42356C11.7025 8.41899 11.6619 8.42295 11.6234 8.43519C11.5849 8.44744 11.5494 8.46768 11.5192 8.49459C11.4891 8.52151 11.465 8.55449 11.4484 8.59138C11.4319 8.62827 11.4234 8.66823 11.4234 8.70864V10.3096C11.4233 10.3771 11.4471 10.4425 11.4905 10.4942C11.5339 10.5459 11.5942 10.5806 11.6607 10.5922L19.3878 11.9475C19.5522 11.9764 19.7038 12.0549 19.8222 12.1726L25.5697 17.8871C25.8021 18.1182 25.9867 18.3929 26.1128 18.6954C26.2389 18.998 26.304 19.3224 26.3045 19.6502C26.305 19.978 26.2407 20.3026 26.1155 20.6055C25.9903 20.9084 25.8065 21.1836 25.5748 21.4154L24.0534 22.9368C23.8923 23.0979 23.8018 23.3163 23.8018 23.5441C23.8018 23.7719 23.8923 23.9904 24.0534 24.1514L25.0322 25.1303C25.3413 25.4404 25.5635 25.8262 25.6765 26.2492C25.7895 26.6722 25.7893 27.1174 25.676 27.5403L24.6608 31.3067C24.4806 31.979 24.4803 32.6869 24.66 33.3594C24.8396 34.0319 25.1929 34.6453 25.6843 35.1382L36.1345 45.5889C36.2142 45.6686 36.3089 45.7319 36.4131 45.7751C36.5174 45.8183 36.6291 45.8405 36.7419 45.8405C36.8547 45.8405 36.9664 45.8182 37.0706 45.7751C37.1748 45.7319 37.2695 45.6686 37.3492 45.5888L39.1988 43.7393C39.3411 43.5975 39.5101 43.4856 39.6961 43.4101C39.8822 43.3345 40.0814 43.2968 40.2821 43.2991C40.483 43.3012 40.6814 43.3438 40.8655 43.4245C41.0495 43.5051 41.2153 43.6221 41.353 43.7684L41.9303 44.378Z" fill="#11181C"/>
<path d="M57.3647 57.2105C57.1694 57.2103 56.9806 57.14 56.8327 57.0124C56.6848 56.8848 56.5875 56.7085 56.5585 56.5153C55.7967 51.436 49.6974 43.902 49.6358 43.8265C49.4995 43.6586 49.4353 43.4435 49.4574 43.2283C49.4795 43.0132 49.5861 42.8156 49.7538 42.679C49.9214 42.5424 50.1365 42.478 50.3516 42.4998C50.5668 42.5216 50.7645 42.6279 50.9014 42.7954C51.1641 43.1178 57.3454 50.7562 58.1729 56.2732C58.1902 56.3894 58.1822 56.508 58.1496 56.6208C58.1169 56.7336 58.0603 56.8381 57.9836 56.9271C57.9069 57.016 57.8119 57.0874 57.7051 57.1363C57.5983 57.1853 57.4822 57.2106 57.3647 57.2105Z" fill="#11181C"/>
<path d="M52.4075 57.2107C52.2137 57.2104 52.0264 57.1412 51.8789 57.0155C51.7315 56.8897 51.6336 56.7156 51.6027 56.5243C50.9763 52.6407 46.3867 47.2 46.3404 47.1455C46.2709 47.0638 46.2183 46.9692 46.1854 46.8672C46.1525 46.7651 46.14 46.6576 46.1487 46.5507C46.1574 46.4438 46.187 46.3397 46.2359 46.2443C46.2849 46.1489 46.3521 46.064 46.4339 45.9946C46.5156 45.9252 46.6102 45.8726 46.7123 45.8397C46.8144 45.8069 46.9219 45.7945 47.0288 45.8033C47.1357 45.812 47.2398 45.8417 47.3351 45.8907C47.4305 45.9397 47.5153 46.007 47.5847 46.0888C47.7857 46.3255 52.5162 51.936 53.2143 56.2644C53.233 56.3811 53.2262 56.5006 53.1943 56.6144C53.1623 56.7283 53.1061 56.8338 53.0294 56.9238C52.9526 57.0138 52.8573 57.086 52.75 57.1356C52.6426 57.1851 52.5257 57.2107 52.4075 57.2107Z" fill="#11181C"/>
<path d="M24.5157 22.1361C24.3565 22.1361 24.2008 22.0895 24.0678 22.0021C23.9347 21.9146 23.8301 21.7902 23.7669 21.6441C23.7036 21.4981 23.6845 21.3367 23.7118 21.1798C23.7391 21.023 23.8117 20.8776 23.9206 20.7615L30.5 13.748C30.5733 13.6698 30.6613 13.6069 30.759 13.5627C30.8567 13.5186 30.9621 13.4941 31.0692 13.4906C31.1763 13.4872 31.2831 13.5049 31.3834 13.5428C31.4836 13.5806 31.5755 13.6378 31.6537 13.7112C31.7318 13.7845 31.7948 13.8725 31.8389 13.9702C31.8831 14.0678 31.9076 14.1733 31.911 14.2804C31.9144 14.3875 31.8967 14.4943 31.8589 14.5945C31.821 14.6948 31.7638 14.7867 31.6905 14.8648L25.1111 21.8783C25.0349 21.9598 24.9427 22.0247 24.8402 22.0691C24.7378 22.1134 24.6273 22.1362 24.5157 22.1361Z" fill="#11181C"/>
</svg>
